<mxfile host="app.diagrams.net" modified="2024-05-09T12:52:47.835Z" agent="Mozilla/5.0 (Windows NT 10.0; Win64; x64) AppleWebKit/537.36 (KHTML, like Gecko) Chrome/124.0.0.0 Safari/537.36" version="22.1.17" etag="q_2J78Oh-UMF7c6Y3tch" type="github">
  <diagram name="Page-1" id="uQso0ZXRBujiHeSYrg0g">
    <mxGraphModel>
      <root>
        <mxCell id="0" />
        <mxCell id="1" parent="0" />
      </root>
    </mxGraphModel>
  </diagram>
</mxfile>
